<svg fill="none" height="31" viewBox="0 0 139 31" width="139" xmlns="http://www.w3.org/2000/svg"><path d="m14.84 5.592 3.492.036v-.792h-17.856v.612h.108c.756 0 1.332 1.116 1.332 1.656v20.916c0 .36-.468 1.368-1.116 1.368h-.324v.612h5.004v-.612h-.252c-.648 0-1.08-1.008-1.08-1.368v-6.084h6.732c2.34.036 5.364-.756 7.164-2.664 1.584-1.728 2.016-4.032 2.016-5.904 0-2.988-1.728-6.444-5.22-7.776zm2.844 9.54c-1.008 2.736-2.664 4.428-4.86 5.364-2.124.936-8.676.684-8.676.684v-15.588h6.696c8.208.864 8.856 3.996 6.84 9.54zm12.1748 11.556h-.864v.36c.036.54-.144 1.008-.36 1.296-.612.72-2.34.9-3.096.18-.288-.252-.396-.828-.36-1.584v-26.712001l-.648.72s-.576.684001-1.44.864001c-.396.072-.612.108-.612.108l-.432.036.288.936h.252c.828 0 .936.792.936 1.224v22.788l.036.612c.072.72.324 1.296.756 1.692 1.08.9 2.52.828 3.24.756.648-.036 1.26-.36 1.656-.792.504-.504.684-1.152.648-2.124zm9.894-17.136c-5.58.756-6.66 5.58-5.436 6.804-.504-.792-.576-5.112 5.58-5.868 2.988-.36 7.02 1.26 7.38 5.076-.036.324-.144.792-.324 1.08-.54 1.044-1.836 1.98-5.724 1.656-3.312-.216-7.488.828-9.036 3.852-1.224 2.268-.576 5.4 2.016 6.912 1.044.612 2.628 1.008 4.14.9 1.98-.144 3.708-.792 5.436-2.268 3.204-2.772 3.744-6.408.792-8.388l-.216.144c3.276 1.548 1.188 5.256-.36 6.516-3.132 2.556-6.48 2.664-8.208 1.656-1.62-.936-2.376-2.772-1.872-4.284.756-2.412 3.6-4.608 6.804-4.5 5.472.216 6.228-1.332 6.588-2.52v10.692s0 1.044.54 1.476c.396.324.9.396.9.396v-12.888c-.18-5.148-3.816-7.128-9-6.444zm32.953 17.244-.108.36c-.18.756-.648 1.296-1.26 1.476-.576.18-1.152.144-1.512-.036-.144-.108-.396-.432-.432-.864-.036-.18-.072-.396-.036-.648v-9.756c0-1.512-.252-2.88-.72-4.032-.072-.216-.18-.396-.252-.576-1.152-2.412-3.096-3.528-5.544-3.24-2.484.288-4.932 2.52-6.552 4.68v-4.536l-.648.792c0 .036-.576.72-1.476.9-.36.072-.576.108-.612.108l-.432.072.324.972h.252c.792 0 .936.828.936 1.332v13.896c0 .396-.288.72-.648.72h-2.124v1.512h7.236v-1.512h-2.124c-.18 0-.36-.072-.468-.216-.144-.144-.216-.324-.216-.504l.036-10.764c1.44-2.7 4.32-5.652 6.66-5.94 1.728-.216 2.772.468 3.672 2.412.468.972.684 2.124.684 3.42v10.584c.036.828.36 1.512.972 2.052.036.072.072.108.108.108.54.432 1.584.54 2.052.54.216 0 .504-.036.756-.108 1.116-.252 2.052-1.26 2.376-2.592l.108-.36zm10.1118-16.056v-1.296h-4.824s.648-.144.936-.72c.216-.432.18-1.116.18-1.116h-1.62s.072.576-.18 1.08c-.396.684-1.044.72-1.872.828-.216 0-.648.036-.648.036l-.324.036v1.152h2.412v15.948l.036.648c.072.756.288 1.368.684 1.836.108.108.252.252.36.324.432.324.936.468 1.512.468h.18c.648-.036 1.26-.324 1.692-.756.468-.54.72-1.332.684-2.376v-.36h-.972v.36c.036.576-.108 1.152-.36 1.404-.18.18-.468.396-.9.432-.216 0-.648-.036-.864-.288-.144-.144-.396-.828-.396-1.656v-15.984zm14.6995-.576c-1.404-.792-3.24-1.044-5.148-.252-1.44.612-2.304 1.44-3.42 3.996 0 0-.108-1.872-2.124-1.8-.396 0-.72.072-.72.072l.252 1.08c.792 0 .9.864.9 1.368v13.068c0 .396-.288.72-.648.72h-2.124v1.548h7.236v-1.548h-2.124c-.36 0-.684-.324-.684-.72l.036-11.736c.54-2.52 1.8-3.96 3.276-4.572.18-.072.36-.108.54-.18.684.576 6.444 5.22 6.48 1.44 0-1.152-.792-1.944-1.728-2.484zm-4.428 1.008c1.152-.216 2.34.036 3.168.504.396.252 1.008.756 1.152 1.368.324 1.116-3.744-1.512-4.32-1.872zm23.8129 13.788-.108.144c-.072.108-.108.18-.216.252-1.404 1.764-3.816 2.88-6.192 2.88-3.6 0-6.408-2.7-7.092-6.66 0 0-.252-1.944-.144-2.916.072-.54.144-1.08.324-1.584 0-.036 0-.036 0-.036.288-1.188.792-2.232 1.44-3.096.576 1.368 3.456 7.236 8.964 7.236 3.276 0 3.924-2.844 3.996-3.312.36-2.196-.468-4.32-1.872-5.868-1.44-1.62-3.6-2.556-5.868-2.556-4.932 0-9.036 4.212-9.36 9.576v.684.108c.036 5.58 4.248 10.152 9.36 10.152 2.916 0 5.76-1.548 7.524-4.176.036-.036.036-.072.072-.108s.072-.108.108-.18l.252-.54zm-6.48-13.788c2.52 0 6.588 2.196 6.048 6.3-.324 2.448-5.94 5.976-11.376-3.78 1.332-1.584 3.168-2.52 5.328-2.52zm26.625 13.788-.108.144c-.072.108-.108.18-.216.252-1.404 1.764-3.816 2.88-6.192 2.88-3.6 0-6.408-2.7-7.092-6.66 0 0-.252-1.944-.144-2.916.072-.54.144-1.08.324-1.584 0-.036 0-.036 0-.036.288-1.188.792-2.232 1.44-3.096.576 1.368 3.456 7.236 8.964 7.236 3.276 0 3.924-2.844 3.996-3.312.36-2.196-.468-4.32-1.872-5.868-1.44-1.62-3.6-2.556-5.868-2.556-4.932 0-9.036 4.212-9.36 9.576v.684.108c.036 5.58 4.248 10.152 9.36 10.152 2.916 0 5.76-1.548 7.524-4.176.036-.036.036-.072.072-.108s.072-.108.108-.18l.252-.54zm-6.48-13.788c2.52 0 6.588 2.196 6.048 6.3-.324 2.448-5.94 5.976-11.376-3.78 1.332-1.584 3.168-2.52 5.328-2.52z" fill="#fff"/></svg>